# xmcd
#
# Track frame offsets:
#	150
#	29365
#	49688
#	67296
#	84444
#	106059
#	121035
#	134954
#	151325
#	166679
#	179889
#	199193
#	225112
#	252365
#
# Disc length: 3735 seconds
#
# Revision: 2
# Processed by: cddbd v1.5.1PL2 Copyright (c) Steve Scherf et al.
# Submitted via: audiograbber 1.83.01
#
DISCID=bb0e950e
DTITLE=Spikedrivers - Blue Trash
DYEAR=1900
DGENRE=
TTITLE0=Blue Trash
TTITLE1=Train Done Gone
TTITLE2=The MF Blues
TTITLE3=You Don't Care
TTITLE4=Burning Through Time
TTITLE5=Garbage Man Blues
TTITLE6=Where Did The Money Go
TTITLE7=Oklahoma Stardust Blues
TTITLE8=Junk Mail Blues
TTITLE9=Too Much Trouble
TTITLE10=Seven Little Words
TTITLE11=Grampa Was A Moonshiner
TTITLE12=Waitin' For The Wind
TTITLE13=Layin' Down Lincolns
EXTD=
EXTT0=
EXTT1=
EXTT2=
EXTT3=
EXTT4=
EXTT5=
EXTT6=
EXTT7=
EXTT8=
EXTT9=
EXTT10=
EXTT11=
EXTT12=
EXTT13=
PLAYORDER=
